<?xml version="1.0" encoding="UTF-8"?><svg id="a" xmlns="http://www.w3.org/2000/svg" width="241.67" height="233.12" viewBox="0 0 241.67 233.12"><defs><style>.b{fill:#ec837e;}.c{fill:#faf7f0;}</style></defs><path class="b" d="M141,.99l94.65,43.93c2.61,1.21,4.28,3.87,4.28,6.81V180.24c0,5.43-5.47,9.05-10.3,6.81l-94.65-43.93c-2.61-1.21-4.28-3.87-4.28-6.81V7.8c0-5.43,5.47-9.05,10.3-6.81Z"/><path class="c" d="M103.22,.62L5.05,45.08c-2.47,1.12-4.05,3.57-4.05,6.28V181.14c0,5.01,5.17,8.35,9.74,6.28l98.17-44.45c2.47-1.12,4.05-3.57,4.05-6.28V6.9c0-5.01-5.17-8.35-9.74-6.28Z"/><path class="b" d="M101.41,232.13L4.39,188.2c-2.67-1.21-4.39-3.87-4.39-6.81V52.89c0-5.43,5.61-9.05,10.56-6.81l97.02,43.93c2.67,1.21,4.39,3.87,4.39,6.81V225.33c0,5.43-5.61,9.05-10.56,6.81Z"/><path class="c" d="M139.45,232.5l98.17-44.45c2.47-1.12,4.05-3.57,4.05-6.28V51.99c0-5.01-5.17-8.35-9.74-6.28l-98.17,44.45c-2.47,1.12-4.05,3.57-4.05,6.28V226.22c0,5.01,5.17,8.35,9.74,6.28Z"/></svg>