<?xml version="1.0" encoding="UTF-8"?><svg xmlns="http://www.w3.org/2000/svg" width="1920" height="1080" viewBox="0 0 1920 1080"><defs><style>.c{fill:#c7e2d2;}.d{fill:#7ec3a6;}.e{fill:#faf7f0;}.f{fill:#ffa89a;}</style></defs><g id="a"/><g id="b"><g><path class="d" d="M351.18,2.6c.79-.88,1.6-1.74,2.41-2.6H0V6.55H347.79c1.1-1.33,2.23-2.65,3.39-3.94Z"/><path class="d" d="M1596.72,6.55h323.28V0h-329.26c2.09,2.08,4.09,4.26,5.97,6.55Z"/><path class="d" d="M457.18,6.55c2.78-2.27,5.63-4.46,8.56-6.55h-105.24c-2.13,2.12-4.18,4.3-6.16,6.55h102.85Z"/><path class="d" d="M1485.67,6.55c-2.56-1.46-5.13-2.87-7.69-4.23-1.49-.79-2.99-1.56-4.49-2.32H474.58c-3.21,2.07-6.35,4.25-9.4,6.55h1020.49Z"/><path class="d" d="M1590.13,6.55c-2.14-2.29-4.42-4.47-6.82-6.55h-99.18c3.73,2.08,7.4,4.25,11.01,6.55h94.99Z"/><path class="d" d="M150.6,621.06c31.46,6.11,63.72,6.66,95.25,.75,1.12-.21,2.24-.44,3.36-.67,.33-12.59,10.64-22.69,23.31-22.69,7.98,0,15.01,4.01,19.22,10.11,13.41-5.34,26.34-11.88,38.51-19.67,25.29-16.18,47.15-37.86,62.15-63.97,19.06-33.19,25.56-71.72,27.77-109.46,2.43-41.44,1-83.21-3.68-124.44-2.4-21.11-5.85-42.04-9.85-62.9-3.91-20.42-8.02-40.85-10.22-61.54-2.11-19.91-2.31-40.11,1.27-59.86,2.86-15.8,8.17-31.14,15.44-45.44,10.7-21.05,25.79-39.81,44.04-54.73h-102.85c-4.39,4.96-8.43,10.23-12.01,15.83-6.92,10.82-11.97,22.73-14.59,35.32-3.23,15.47-2.74,31.52-.36,47.07,4.82,31.5,16.34,61.48,22.76,92.63,6.53,31.71,9.19,64.23,7.86,96.57-1.2,29.14-5.03,58.83-14.21,86.61-8.16,24.71-21.19,48.48-41.43,65.33-20.82,17.33-47.4,25.92-74.18,27.69-29.35,1.94-58.5-4.6-85.8-15.02-28.45-10.86-55.68-25.37-81.94-40.73-21.42-12.53-42.13-26.55-60.44-43.32v176.58c16.46,12.18,33.66,23.36,51.61,33.22,30.97,17.01,64.25,29.98,98.99,36.72Z"/><path class="d" d="M847.1,672.25c22.16-9.1,44.95-16.68,68.14-22.67,33.87-8.75,68.63-14.15,103.56-16.09,34.94-1.94,70.05-.36,104.67,4.78,28.13,4.17,55.83,11.57,82,22.75,25.43,10.86,49.63,25.61,69.19,45.32,20.29,20.45,34.65,46.15,40.07,74.54,6.29,32.95,1.89,67.17-6.04,99.53,75.74-11.64,151.59-27.97,227.09-38.74-1.86-6.47-3.33-13.11-4.36-19.89-.08-.01-.17-.03-.25-.04-.24-1.69-.45-3.39-.64-5.1,.07,0,.14,.02,.21,.03-.41-3.41-.71-6.85-.9-10.33h-.08c-.07-1.67-.12-3.34-.14-5.01h.02c-.03-1.28-.05-2.56-.05-3.84,0-88.14,71.45-159.6,159.6-159.6s159.6,71.45,159.6,159.6c0,8.26-.63,16.36-1.84,24.28,24.36-.3,48.72-.44,73.06-.54V185.14c-3.05-.57-6.1-1.12-9.15-1.63-64.24-10.79-129.56-8.26-194.41-7.09-35.24,.63-70.54,.89-105.72-1.54-17.11-1.18-34.21-2.98-51.14-5.7-14.47-2.33-29.09-5.67-42.05-12.77-11.58-6.34-21.01-15.76-26.16-28.03-4.74-11.29-5.44-24.49,.58-35.46,5.88-10.71,16.87-16.97,24.57-26.13,4.39-5.22,7.12-11.53,6.62-18.46-.54-7.43-4.56-14.26-9.26-19.84-7.7-9.12-17.81-16.01-28.21-21.94H465.18c-1.27,.95-2.53,1.91-3.77,2.91-25.85,20.83-45.24,49.53-54.76,81.34-11.68,39.03-5.87,79.75,1.55,118.99,3.94,20.88,8.05,41.69,10.96,62.75,2.88,20.89,4.91,41.89,6.04,62.95,2.17,40.6,2.2,82.29-4.69,122.47-5.87,34.26-18.49,66.79-40.64,93.84-19.14,23.37-43.99,41.79-71.16,54.81-4.79,2.3-9.66,4.42-14.59,6.39,1.11,2.71,1.72,5.68,1.72,8.79,0,12.88-10.44,23.32-23.32,23.32-11.38,0-20.85-8.16-22.91-18.94-9.58,1.9-19.27,3.25-29,4.05-33.15,2.71-66.56-1.63-98.43-10.89-33.97-9.87-66.18-25.33-96.03-44.21-8.92-5.64-17.63-11.59-26.15-17.81v267.95c199.53-105.12,434.56-165.47,672.35-172.52,59.29-1.76,120.6,.08,174.76,19.52Z"/><path class="d" d="M1610.38,42.38c-.67,11.19-6.88,19.95-12.85,28.99-5.29,8.01-12.01,19.26-3.64,27.72,7.62,7.7,21.21,7.05,31.14,7.61,14.49,.82,28.97,1.7,43.45,2.63,44.49,2.86,88.95,6.25,133.36,10.15,1.97-10.97,11.55-19.3,23.09-19.3,12.96,0,23.47,10.51,23.47,23.47,0,.04,0,.08,0,.12,23.88,2.3,47.75,4.75,71.6,7.35V6.55h-323.28c8.5,10.32,14.45,22.62,13.66,35.83Z"/><path class="d" d="M1206.23,796.31c-1.21-4.41-2.68-8.75-4.38-12.98-3.6,2.27-7.85,3.58-12.41,3.58-12.88,0-23.32-10.44-23.32-23.32,0-8.34,4.38-15.65,10.96-19.78-12.37-13.91-27.22-25.55-43.6-34.38-19.91-10.73-41.81-17.42-64.07-21.09-22.71-3.75-45.91-4.31-68.86-2.88-22.88,1.42-45.62,4.84-67.93,10.1-9.59,2.26-19.08,4.89-28.48,7.82,28.15,22.23,47.17,51.34,47.4,82.89,.1,14.3-3.53,28.82,.26,42.79,8.89,32.74,53.63,49.59,94.03,56.71,49.15,8.66,98.58,10.14,148.15,7.35,4.8-10.15,8.79-20.71,11.66-31.79,5.52-21.28,6.43-43.71,.6-65.02Z"/><path class="d" d="M82.88,424.73c26.88,14.6,54.51,28.46,84.07,36.76,26.96,7.58,55.53,10.13,83.05,4.01,26.4-5.88,50.05-19.88,66.4-41.62,15.82-21.04,24.57-46.55,29.79-72.11,6.21-30.37,8.15-61.75,6.69-92.68-1.53-32.43-7.55-64-16.28-95.21-8.28-29.61-17.92-60.09-15.89-91.23,1.6-24.69,11.46-47.25,27.08-66.1H0V367.72c2.71,2.59,5.48,5.12,8.3,7.58,22.56,19.65,48.36,35.19,74.58,49.43Z"/><path class="d" d="M1303.24,758.67c-9.59-25.02-26.92-46.22-47.78-62.77-21.7-17.21-47.1-29.59-73.24-38.45-28.19-9.55-57.5-14.86-87.09-17.59-34.02-3.14-68.34-2.85-102.32,.72-34.2,3.6-68.05,10.62-100.89,20.83-12.81,3.98-25.45,8.47-37.9,13.43,16.28,6.44,31.68,14.86,45.22,24.81,16.46-5.3,33.25-9.58,50.24-12.79,45.65-8.62,94.04-10.82,139.45,.38,21.53,5.31,42.49,13.82,60.91,26.24,11.78,7.94,22.56,17.37,31.89,28.08,2.41-.84,5-1.31,7.7-1.31,12.88,0,23.32,10.44,23.32,23.32,0,6.45-2.62,12.28-6.85,16.51,3.95,9.51,6.76,19.48,8.17,29.7,3.21,23.2-.59,46.81-8.57,68.7-1.78,4.87-3.75,9.63-5.89,14.3,34.52-2.16,69.11-6.35,103.72-11.56,1.43-5.76,2.73-11.54,3.89-17.36,6.9-34.67,8.88-71.61-3.98-105.19Z"/><path class="d" d="M1824.93,147.12c-12.69,0-23.02-10.08-23.45-22.67-53.86-4.73-107.78-8.71-161.75-11.9-7.35-.44-14.71-.83-22.06-1.26-4.96-.29-9.98-.76-14.8-2.04-9.24-2.45-17.38-8.72-17.99-18.92-.61-10.27,7-19.36,12.28-27.43,6.36-9.7,10.07-19.67,7.16-31.32-2.43-9.76-7.6-17.96-14.2-25.04h-94.99c.35,.22,.71,.44,1.06,.66,11.63,7.49,23.33,16.91,29.07,29.88,5.32,12.03,2.72,24.28-5.84,33.98-8.29,9.4-20.59,16.16-25,28.48-4.49,12.51-.32,26.6,7.25,37,8.92,12.25,23.32,19.11,37.54,23.17,15.73,4.49,32.25,6.43,48.47,8.15,17.73,1.88,35.55,2.94,53.37,3.49,35.54,1.09,71.09,.12,106.62-.55,57.6-1.08,115.55-1.17,172.32,9.26v-43.97c-24.04-2.62-48.09-5.08-72.16-7.4-2.32,10.52-11.69,18.4-22.91,18.4Z"/><path class="c" d="M1485.67,6.55c10.4,5.94,20.52,12.82,28.21,21.94,4.71,5.58,8.72,12.41,9.26,19.84,.51,6.93-2.23,13.24-6.62,18.46-7.71,9.16-18.69,15.42-24.57,26.13-6.02,10.97-5.32,24.17-.58,35.46,5.15,12.26,14.58,21.68,26.16,28.03,12.96,7.1,27.58,10.44,42.05,12.77,16.94,2.73,34.03,4.52,51.14,5.7,35.18,2.43,70.48,2.18,105.72,1.54,64.84-1.17,130.16-3.7,194.41,7.09,3.05,.51,6.1,1.06,9.15,1.63v-5.06c-56.77-10.43-114.72-10.35-172.32-9.26-35.53,.67-71.09,1.63-106.62,.55-17.82-.55-35.64-1.61-53.37-3.49-16.22-1.72-32.74-3.66-48.47-8.15-14.22-4.06-28.62-10.92-37.54-23.17-7.57-10.4-11.74-24.49-7.25-37,4.42-12.32,16.72-19.08,25-28.48,8.56-9.71,11.17-21.96,5.84-33.98-5.74-12.96-17.44-22.39-29.07-29.88-.35-.22-.71-.44-1.06-.66-3.6-2.29-7.28-4.47-11.01-6.55h-10.64c1.5,.76,3,1.52,4.49,2.32,2.56,1.36,5.14,2.77,7.69,4.23Z"/><path class="c" d="M1590.13,6.55c6.6,7.08,11.77,15.28,14.2,25.04,2.9,11.65-.8,21.62-7.16,31.32-5.29,8.06-12.89,17.15-12.28,27.43,.61,10.2,8.75,16.47,17.99,18.92,4.82,1.28,9.83,1.74,14.8,2.04,7.35,.43,14.71,.83,22.06,1.26,53.97,3.2,107.89,7.17,161.75,11.9,0-.27-.02-.53-.02-.8,0-1.42,.13-2.82,.38-4.17-44.41-3.9-88.87-7.29-133.36-10.15-14.48-.93-28.96-1.81-43.45-2.63-9.93-.56-23.52,.08-31.14-7.61-8.37-8.45-1.65-19.71,3.64-27.72,5.98-9.04,12.18-17.8,12.85-28.99,.79-13.21-5.16-25.51-13.66-35.83-1.88-2.28-3.89-4.47-5.97-6.55h-7.43c2.4,2.07,4.68,4.25,6.82,6.55Z"/><path class="c" d="M1847.84,128.72c24.07,2.31,48.12,4.78,72.16,7.4v-5c-23.85-2.6-47.72-5.05-71.6-7.35,0,1.7-.2,3.35-.55,4.95Z"/><path class="c" d="M1000.54,685.46c22.95-1.43,46.14-.87,68.86,2.88,22.26,3.67,44.16,10.36,64.07,21.09,16.38,8.83,31.23,20.47,43.6,34.38,1.45-.91,3.02-1.66,4.66-2.24-9.33-10.71-20.11-20.13-31.89-28.08-18.43-12.42-39.38-20.94-60.91-26.24-45.41-11.19-93.8-9-139.45-.38-16.99,3.21-33.77,7.49-50.24,12.79,1.66,1.22,3.29,2.46,4.89,3.72,9.39-2.94,18.89-5.56,28.48-7.82,22.31-5.26,45.05-8.67,67.93-10.1Z"/><path class="c" d="M1214.08,809.79c-1.41-10.22-4.23-20.19-8.17-29.7-1.23,1.22-2.59,2.31-4.06,3.24,1.7,4.24,3.18,8.57,4.38,12.98,5.83,21.31,4.92,43.74-.6,65.02-2.87,11.07-6.86,21.63-11.66,31.79,1.88-.11,3.77-.21,5.65-.33,2.13-4.67,4.11-9.43,5.89-14.3,7.98-21.88,11.78-45.5,8.57-68.7Z"/><path class="c" d="M1314.73,780.88c-5.42-28.39-19.78-54.09-40.07-74.54-19.56-19.71-43.76-34.46-69.19-45.32-26.17-11.18-53.87-18.58-82-22.75-34.61-5.13-69.73-6.71-104.67-4.78-34.93,1.94-69.69,7.33-103.56,16.09-23.19,5.99-45.98,13.57-68.14,22.67,1.1,.4,2.21,.79,3.3,1.2,1.21,.45,2.42,.92,3.62,1.4,12.45-4.96,25.09-9.45,37.9-13.43,32.84-10.21,66.69-17.23,100.89-20.83,33.97-3.58,68.3-3.86,102.32-.72,29.59,2.73,58.91,8.04,87.09,17.59,26.14,8.86,51.54,21.24,73.24,38.45,20.86,16.55,38.19,37.75,47.78,62.77,12.87,33.58,10.89,70.52,3.98,105.19-1.16,5.82-2.46,11.6-3.89,17.36,1.78-.27,3.57-.54,5.35-.81,7.93-32.36,12.33-66.58,6.04-99.53Z"/><path class="c" d="M142.38,458.58c27.3,10.42,56.45,16.96,85.8,15.02,26.78-1.77,53.36-10.36,74.18-27.69,20.24-16.85,33.27-40.61,41.43-65.33,9.17-27.78,13.01-57.47,14.21-86.61,1.33-32.35-1.33-64.86-7.86-96.57-6.42-31.15-17.94-61.14-22.76-92.63-2.38-15.55-2.87-31.6,.36-47.07,2.63-12.59,7.67-24.49,14.59-35.32,3.58-5.6,7.62-10.87,12.01-15.83,1.99-2.24,4.04-4.43,6.16-6.55h-6.9c-.81,.86-1.62,1.72-2.41,2.6-1.16,1.29-2.29,2.61-3.39,3.94-15.61,18.85-25.47,41.41-27.08,66.1-2.02,31.13,7.61,61.62,15.89,91.23,8.73,31.21,14.75,62.79,16.28,95.21,1.46,30.93-.49,62.32-6.69,92.68-5.22,25.56-13.97,51.07-29.79,72.11-16.35,21.74-40,35.75-66.4,41.62-27.53,6.13-56.09,3.57-83.05-4.01-29.56-8.31-57.19-22.16-84.07-36.76-26.21-14.24-52.01-29.78-74.58-49.43-2.83-2.46-5.59-4.99-8.3-7.58v6.81c18.31,16.77,39.03,30.79,60.44,43.32,26.26,15.36,53.48,29.87,81.94,40.73Z"/><path class="c" d="M122.18,619.32c31.87,9.26,65.28,13.6,98.43,10.89,9.73-.8,19.42-2.15,29-4.05-.27-1.42-.42-2.88-.42-4.38,0-.21,.01-.42,.02-.63-1.12,.23-2.24,.46-3.36,.67-31.53,5.91-63.79,5.35-95.25-.75-34.74-6.74-68.02-19.72-98.99-36.72-17.96-9.86-35.15-21.04-51.61-33.22v6.18c8.52,6.22,17.23,12.17,26.15,17.81,29.85,18.88,62.06,34.34,96.03,44.21Z"/><path class="c" d="M413.14,61.28c-7.27,14.31-12.58,29.64-15.44,45.44-3.58,19.75-3.38,39.96-1.27,59.86,2.19,20.7,6.3,41.12,10.22,61.54,4,20.86,7.45,41.79,9.85,62.9,4.68,41.24,6.1,83,3.68,124.44-2.21,37.74-8.7,76.27-27.77,109.46-15,26.11-36.86,47.79-62.15,63.97-12.17,7.79-25.1,14.33-38.51,19.67,.95,1.37,1.75,2.85,2.38,4.42,4.93-1.97,9.8-4.1,14.59-6.39,27.17-13.02,52.02-31.44,71.16-54.81,22.15-27.04,34.76-59.58,40.64-93.84,6.89-40.18,6.86-81.87,4.69-122.47-1.13-21.06-3.16-42.06-6.04-62.95-2.9-21.05-7.01-41.87-10.96-62.75-7.41-39.25-13.22-79.96-1.55-118.99,9.52-31.81,28.91-60.51,54.76-81.34,1.24-1,2.5-1.95,3.77-2.91,3.05-2.3,6.19-4.48,9.4-6.55h-8.85c-2.92,2.09-5.78,4.27-8.56,6.55-18.25,14.93-33.35,33.69-44.04,54.73Z"/><path class="e" d="M1920,821.23c-24.35,.1-48.71,.25-73.06,.54-.36,2.37-.78,4.72-1.25,7.05,.13-.11,.27-.22,.4-.33-.48,2.57-1.01,5.13-1.61,7.65-.18,.14-.36,.29-.54,.43-4.98,19.78-13.65,38.08-25.24,54.15,.34,.11,.69,.22,1.04,.33-1.01,1.44-2.04,2.85-3.1,4.25-.36-.12-.72-.24-1.08-.37-3.53,4.57-7.29,8.94-11.28,13.1,.5,.06,1.01,.12,1.51,.18-1.42,1.52-2.88,3.02-4.36,4.49-.54-.07-1.07-.14-1.61-.21-15.23,14.65-33.36,26.3-53.44,34.02,1,.2,2,.39,3,.59-2.94,1.2-5.92,2.32-8.95,3.35-1.2-.21-2.41-.41-3.62-.61-15.04,4.7-31.04,7.23-47.63,7.23-1.16,0-2.32-.02-3.48-.04,3.35,.51,6.7,1.07,10.03,1.68-2.17,.09-4.36,.14-6.55,.14-17.02,0-33.42-2.68-48.8-7.61,4.3,.68,8.62,1.26,12.95,1.78-18.82-4.32-36.37-11.98-52-22.31-.18,.49-.33,.99-.44,1.49-1.48-.99-2.95-1.99-4.39-3.02,.17-.46,.36-.92,.57-1.38-5.41-3.83-10.57-7.99-15.46-12.45-.33,.28-.67,.57-1,.85-1.22-1.14-2.43-2.29-3.62-3.47,.32-.28,.65-.55,.97-.83-5.17-5.03-10.01-10.39-14.46-16.07-.27,.24-.54,.49-.81,.73-1.02-1.33-2.03-2.67-3.01-4.03,.26-.23,.53-.47,.79-.7-10.98-14.96-19.43-31.89-24.69-50.18-75.49,10.76-151.35,27.1-227.09,38.74-1.78,.27-3.57,.54-5.35,.81-34.61,5.21-69.2,9.4-103.72,11.56-1.88,.12-3.77,.22-5.65,.33-49.57,2.79-99,1.32-148.15-7.35-40.4-7.12-85.14-23.97-94.03-56.71-3.79-13.97-.16-28.48-.26-42.79-.23-31.56-19.24-60.66-47.4-82.89-1.6-1.26-3.23-2.5-4.89-3.72-13.54-9.96-28.94-18.37-45.22-24.81-1.2-.48-2.41-.94-3.62-1.4-1.1-.41-2.2-.8-3.3-1.2-54.16-19.44-115.47-21.28-174.76-19.52-237.79,7.04-472.82,67.4-672.35,172.52v254.75H1920v-258.77Z"/><path class="f" d="M1848.77,797.49c0-88.14-71.45-159.6-159.6-159.6s-159.6,71.45-159.6,159.6c0,1.28,.02,2.57,.05,3.84,12.94,1.05,25.87,2.26,38.77,3.78,10.33,1.22,20.64,2.62,30.91,4.3,8.75,1.43,17.66,2.73,26.02,5.81,6.59,2.43,13.18,5.9,17.59,11.52,5.18,6.6,5.78,14.98,2.8,22.7-3.07,7.96-8.41,15.13-13.89,21.6-5.53,6.53-11.74,12.44-18.2,18.04-10.44,9.05-21.54,17.32-32.03,26.29,4.88,4.46,10.05,8.62,15.46,12.45,.82-1.79,1.91-3.49,3.05-5.04,2.56-3.46,5.39-6.74,8.32-9.88,5.72-6.13,11.98-11.74,18.41-17.12,13.07-10.94,26.93-20.97,39.09-32.96,5.92-5.83,11.4-12.13,15.94-19.1,4.62-7.1,9.38-16.12,5.21-24.53-3.17-6.39-9.96-10.23-16.38-12.69-7.96-3.04-16.45-4.34-24.81-5.74-38.37-6.4-77.22-8.87-115.99-11.51,.1-1.66,.23-3.32,.38-4.97,6.83,.47,13.66,.93,20.49,1.41,21.27,1.49,42.53,3.15,63.71,5.65,10.33,1.22,20.64,2.62,30.91,4.3,8.75,1.43,17.66,2.73,26.02,5.81,6.59,2.43,13.18,5.9,17.59,11.52,5.18,6.6,5.78,14.98,2.8,22.7-3.07,7.96-8.41,15.13-13.89,21.6-5.53,6.53-11.74,12.44-18.2,18.04-12.91,11.19-26.85,21.17-39.38,32.8-6.13,5.69-12.52,11.85-17.11,18.89-.77,1.18-1.44,2.44-1.91,3.71,15.63,10.33,33.18,17.98,52,22.31,7.45,.9,14.92,1.66,22.33,2.59,3.36,.42,6.7,.9,10.04,1.41,1.16,.02,2.32,.04,3.48,.04,16.59,0,32.59-2.53,47.63-7.23-15.7-2.53-31.53-3.91-47.3-6.18-10.16-1.46-20.29-3.44-30.04-6.7-7.25-2.43-16.84-5.92-17.66-14.81-.42-4.56,1.88-8.86,4.51-12.42,2.56-3.46,5.39-6.74,8.32-9.88,5.72-6.13,11.98-11.74,18.41-17.12,13.07-10.94,26.93-20.97,39.09-32.96,5.92-5.83,11.4-12.13,15.94-19.1,4.62-7.1,9.38-16.12,5.21-24.53-3.17-6.39-9.96-10.23-16.38-12.69-7.96-3.04-16.45-4.34-24.81-5.74-42.02-7.01-84.62-9.3-127.05-12.28-11.09-.78-22.2-1.61-33.29-2.57,.27-1.64,.57-3.28,.89-4.91,21.42,1.85,42.9,3.17,64.34,4.68,21.27,1.49,42.53,3.15,63.71,5.65,10.33,1.22,20.64,2.62,30.91,4.3,8.75,1.43,17.66,2.73,26.02,5.81,6.59,2.43,13.18,5.9,17.59,11.52,5.18,6.6,5.78,14.98,2.8,22.7-3.07,7.96-8.41,15.13-13.89,21.6-5.53,6.53-11.74,12.44-18.19,18.04-12.91,11.19-26.85,21.17-39.38,32.8-6.13,5.69-12.52,11.85-17.11,18.89-2.56,3.92-4.09,8.65-.34,12.35,3.1,3.06,7.67,4.48,11.69,5.83,19.7,6.61,40.59,7.87,61.07,10.43,8.22,1.03,16.39,2.35,24.5,3.94,20.08-7.71,38.21-19.37,53.44-34.02-2.06-.27-4.13-.55-6.19-.85-10.16-1.46-20.29-3.44-30.04-6.7-7.25-2.43-16.84-5.92-17.66-14.81-.42-4.56,1.89-8.86,4.51-12.42,2.56-3.46,5.39-6.74,8.32-9.88,5.72-6.13,11.98-11.74,18.41-17.12,13.07-10.94,26.93-20.97,39.09-32.96,5.92-5.83,11.4-12.13,15.94-19.1,4.62-7.1,9.38-16.12,5.21-24.53-3.17-6.39-9.96-10.23-16.38-12.69-7.96-3.04-16.45-4.34-24.81-5.74-42.02-7.01-84.62-9.3-127.05-12.28-41.17-2.89-82.49-6.42-122.86-15.36,.77-1.54,1.56-3.07,2.37-4.59,8.31,1.82,16.67,3.42,25.06,4.83,42.11,7.05,84.82,9.33,127.36,12.32,21.27,1.49,42.53,3.15,63.71,5.65,10.33,1.22,20.64,2.62,30.91,4.3,8.75,1.43,17.66,2.73,26.02,5.81,6.59,2.43,13.18,5.9,17.59,11.52,5.18,6.6,5.78,14.98,2.8,22.7-3.07,7.96-8.41,15.13-13.89,21.6-5.53,6.53-11.74,12.44-18.2,18.04-12.91,11.19-26.85,21.17-39.38,32.8-6.13,5.69-12.52,11.85-17.11,18.89-2.56,3.92-4.09,8.65-.34,12.35,3.1,3.06,7.67,4.48,11.69,5.83,12.76,4.28,26.03,6.31,39.35,7.91,3.99-4.16,7.76-8.53,11.28-13.1-7.04-2.42-15.57-6.01-16.34-14.37-.42-4.56,1.89-8.86,4.51-12.42,2.56-3.46,5.39-6.74,8.32-9.88,5.72-6.13,11.98-11.74,18.41-17.12,5.01-4.19,10.13-8.25,15.24-12.34,.46-2.33,.89-4.68,1.25-7.05,1.21-7.92,1.84-16.03,1.84-24.28Zm-138.71-156.45c-5.49,4.28-10.91,8.66-16.2,13.18-3.57,3.06-7.09,6.18-10.53,9.38-3.35,3.12-6.95,6.23-9.91,9.73-7.2,8.53,9,11.06,14.23,12.29,10.49,2.46,21.06,4.54,31.68,6.32,31.92,5.35,64.19,7.95,96.46,10.19,1.33,1.73,2.62,3.48,3.88,5.26-1.64-.11-3.28-.23-4.92-.34-42.15-2.96-84.46-6.57-125.73-15.99-6.91-1.58-18.19-2.65-21.72-10.01-1.74-3.62-.5-7.42,1.87-10.41,2.83-3.56,6.41-6.66,9.72-9.77,7.71-7.23,15.8-14.04,24.09-20.61,2.37,.2,4.72,.45,7.06,.76Zm-40.89,8.95c-7.33,5.57-14.54,11.3-21.53,17.29-3.57,3.06-7.09,6.18-10.53,9.38-3.35,3.12-6.95,6.23-9.91,9.73-7.2,8.53,9,11.06,14.23,12.29,10.49,2.46,21.06,4.54,31.68,6.32,42.11,7.05,84.82,9.33,127.36,12.32,8.95,.63,17.91,1.29,26.86,2.03,1,1.72,1.96,3.47,2.9,5.23-20.55-1.73-41.14-3.02-61.69-4.46-42.15-2.96-84.46-6.57-125.73-15.99-6.91-1.58-18.19-2.65-21.72-10.01-1.74-3.62-.5-7.42,1.87-10.41,2.83-3.56,6.41-6.66,9.72-9.77,12.87-12.07,26.78-22.98,40.93-33.51,3.05-.29,6.12-.5,9.22-.62-4.58,3.36-9.15,6.74-13.66,10.17Zm53.28,83.89c-42.15-2.96-84.46-6.57-125.73-15.99-6.91-1.58-18.19-2.65-21.72-10.01-1.74-3.62-.5-7.42,1.87-10.41,2.83-3.56,6.41-6.66,9.72-9.77,13.41-12.57,27.94-23.89,42.7-34.83,1.51-1.12,3.02-2.23,4.54-3.34,4.86-1.8,9.84-3.36,14.91-4.69-8.61,6.23-17.22,12.47-25.66,18.9-7.33,5.57-14.54,11.3-21.53,17.29-3.57,3.06-7.09,6.18-10.53,9.38-3.35,3.12-6.95,6.23-9.91,9.73-7.2,8.53,9,11.06,14.23,12.29,10.49,2.46,21.06,4.54,31.68,6.32,42.11,7.05,84.82,9.33,127.36,12.32,21.27,1.49,42.53,3.15,63.71,5.65,6.33,.75,12.65,1.57,18.97,2.48,.72,1.76,1.41,3.53,2.06,5.32-38.65-5.75-77.73-7.92-116.68-10.65Z"/><path class="f" d="M1582.49,867.05c4.62-7.1,9.38-16.12,5.21-24.53-3.17-6.39-9.96-10.23-16.38-12.69-7.96-3.04-16.45-4.34-24.81-5.74-5.03-.84-10.06-1.61-15.1-2.32,1.04,6.78,2.5,13.42,4.36,19.89,5.26,18.29,13.7,35.23,24.69,50.18,2.06-1.86,4.1-3.75,6.08-5.71,5.92-5.83,11.4-12.13,15.94-19.1Z"/><path class="f" d="M1619.84,876.59c5.92-5.83,11.4-12.13,15.94-19.1,4.62-7.1,9.38-16.12,5.21-24.53-3.17-6.39-9.96-10.23-16.38-12.69-7.96-3.04-16.45-4.34-24.81-5.74-23.19-3.87-46.55-6.3-69.97-8.2,.19,3.47,.49,6.92,.9,10.33,5.11,.71,10.2,1.47,15.29,2.31,8.75,1.43,17.66,2.73,26.02,5.81,6.59,2.43,13.18,5.9,17.59,11.52,5.18,6.6,5.78,14.98,2.8,22.7-3.07,7.96-8.41,15.13-13.89,21.6-4.62,5.46-9.73,10.48-15.05,15.26,4.45,5.68,9.29,11.05,14.46,16.07,.93-.8,1.85-1.6,2.79-2.38,13.07-10.94,26.93-20.97,39.09-32.96Z"/><path class="f" d="M1806.85,872.39c-2.56,3.92-4.09,8.65-.34,12.35,3.1,3.06,7.67,4.48,11.69,5.83,.17,.06,.34,.1,.5,.16,11.59-16.07,20.26-34.37,25.24-54.15-6.81,5.46-13.58,10.97-19.99,16.92-6.13,5.69-12.52,11.85-17.11,18.89Z"/><path class="e" d="M1653.32,953.04c-4.33-.52-8.65-1.1-12.95-1.78,15.38,4.94,31.78,7.61,48.8,7.61,2.2,0,4.38-.06,6.55-.14-3.34-.61-6.68-1.17-10.03-1.68-3.34-.51-6.69-1-10.04-1.41-7.42-.93-14.89-1.69-22.33-2.59Z"/><path class="e" d="M1620.34,908.13c12.53-11.63,26.47-21.61,39.38-32.8,6.46-5.6,12.67-11.51,18.2-18.04,5.47-6.47,10.82-13.64,13.89-21.6,2.98-7.72,2.38-16.1-2.8-22.7-4.41-5.62-11-9.09-17.59-11.52-8.36-3.08-17.27-4.38-26.02-5.81-10.27-1.68-20.58-3.09-30.91-4.3-21.18-2.49-42.44-4.15-63.71-5.65-6.83-.48-13.66-.94-20.49-1.41-.15,1.65-.28,3.31-.38,4.97,38.77,2.65,77.62,5.11,115.99,11.51,8.37,1.4,16.85,2.7,24.81,5.74,6.42,2.45,13.21,6.3,16.38,12.69,4.17,8.41-.59,17.43-5.21,24.53-4.54,6.97-10.02,13.27-15.94,19.1-12.16,11.99-26.02,22.02-39.09,32.96-6.43,5.38-12.69,10.99-18.41,17.12-2.93,3.15-5.76,6.42-8.32,9.88-1.15,1.55-2.23,3.24-3.05,5.04-.21,.45-.4,.91-.57,1.38,1.44,1.03,2.91,2.04,4.39,3.02,.11-.5,.26-1,.44-1.49,.47-1.28,1.14-2.53,1.91-3.71,4.59-7.04,10.98-13.21,17.11-18.89Z"/><path class="e" d="M1631.83,871.05c5.47-6.47,10.82-13.64,13.89-21.6,2.98-7.72,2.38-16.1-2.8-22.7-4.41-5.62-11-9.09-17.59-11.52-8.36-3.08-17.27-4.38-26.02-5.81-10.27-1.68-20.58-3.09-30.91-4.3-12.9-1.52-25.83-2.73-38.77-3.78h-.02c.02,1.67,.07,3.34,.14,5h.08c23.42,1.91,46.78,4.34,69.97,8.2,8.37,1.4,16.85,2.7,24.81,5.74,6.42,2.45,13.21,6.3,16.38,12.69,4.17,8.41-.59,17.43-5.21,24.53-4.54,6.97-10.02,13.27-15.94,19.1-12.16,11.99-26.02,22.02-39.09,32.96-.94,.79-1.86,1.59-2.79,2.38-.32,.28-.65,.55-.97,.83,1.19,1.17,2.4,2.33,3.62,3.47,.33-.29,.66-.57,1-.85,10.5-8.98,21.59-17.24,32.03-26.29,6.46-5.6,12.67-11.51,18.2-18.04Z"/><path class="e" d="M1660.8,932.15c-4.03-1.35-8.59-2.76-11.69-5.83-3.74-3.7-2.21-8.43,.34-12.35,4.59-7.04,10.98-13.21,17.11-18.89,12.53-11.63,26.47-21.61,39.38-32.8,6.46-5.6,12.67-11.51,18.19-18.04,5.47-6.47,10.82-13.64,13.89-21.6,2.98-7.72,2.38-16.1-2.8-22.7-4.41-5.62-11-9.09-17.59-11.52-8.36-3.08-17.27-4.38-26.02-5.81-10.27-1.68-20.58-3.09-30.91-4.3-21.18-2.49-42.44-4.15-63.71-5.65-21.44-1.51-42.91-2.83-64.34-4.68-.32,1.63-.62,3.26-.89,4.91,11.09,.96,22.2,1.79,33.29,2.57,42.44,2.98,85.04,5.27,127.05,12.28,8.37,1.4,16.85,2.7,24.81,5.74,6.42,2.45,13.21,6.3,16.38,12.69,4.17,8.41-.59,17.43-5.21,24.53-4.54,6.97-10.02,13.27-15.94,19.1-12.16,11.99-26.02,22.02-39.09,32.96-6.43,5.38-12.69,10.99-18.41,17.12-2.93,3.15-5.76,6.42-8.32,9.88-2.63,3.56-4.93,7.86-4.51,12.42,.82,8.89,10.41,12.39,17.66,14.81,9.75,3.27,19.88,5.24,30.04,6.7,15.76,2.27,31.6,3.65,47.3,6.18,1.21,.19,2.41,.4,3.62,.61,3.03-1.03,6.01-2.15,8.95-3.35-1-.2-2-.4-3-.59-8.12-1.59-16.29-2.91-24.5-3.94-20.48-2.56-41.37-3.82-61.07-10.43Z"/><path class="e" d="M1578.54,880.6c5.47-6.47,10.82-13.64,13.89-21.6,2.98-7.72,2.38-16.1-2.8-22.7-4.41-5.62-11-9.09-17.59-11.52-8.36-3.08-17.27-4.38-26.02-5.81-5.09-.83-10.18-1.6-15.29-2.31-.07,0-.14-.02-.21-.03,.19,1.71,.4,3.41,.64,5.1,.08,.01,.17,.03,.25,.04,5.04,.71,10.08,1.48,15.1,2.32,8.37,1.4,16.85,2.7,24.81,5.74,6.42,2.45,13.21,6.3,16.38,12.69,4.17,8.41-.59,17.43-5.21,24.53-4.54,6.97-10.02,13.27-15.94,19.1-1.98,1.95-4.02,3.84-6.08,5.71-.26,.24-.52,.47-.79,.7,.98,1.36,1.98,2.7,3.01,4.03,.27-.24,.54-.49,.81-.73,5.32-4.77,10.42-9.8,15.05-15.26Z"/><path class="e" d="M1632.69,673.94c-3.31,3.11-6.89,6.2-9.72,9.77-2.37,2.99-3.61,6.79-1.87,10.41,3.53,7.36,14.81,8.43,21.72,10.01,41.27,9.42,83.59,13.03,125.73,15.99,20.55,1.44,41.15,2.73,61.69,4.46-.94-1.76-1.9-3.51-2.9-5.23-8.95-.74-17.9-1.4-26.86-2.03-42.54-2.99-85.25-5.26-127.36-12.32-10.62-1.78-21.2-3.86-31.68-6.32-5.24-1.23-21.44-3.76-14.23-12.29,2.96-3.51,6.55-6.61,9.91-9.73,3.44-3.2,6.96-6.32,10.53-9.38,7-5.98,14.21-11.71,21.53-17.29,4.52-3.44,9.08-6.82,13.66-10.17-3.09,.12-6.17,.32-9.22,.62-14.15,10.52-28.06,21.44-40.93,33.51Z"/><path class="e" d="M1837.07,739.2c-6.31-.91-12.63-1.74-18.97-2.48-21.18-2.49-42.44-4.15-63.71-5.65-42.54-2.99-85.25-5.26-127.36-12.32-10.62-1.78-21.2-3.86-31.68-6.32-5.24-1.23-21.44-3.76-14.23-12.29,2.96-3.51,6.55-6.61,9.91-9.73,3.44-3.2,6.96-6.32,10.53-9.38,7-5.98,14.21-11.71,21.53-17.29,8.45-6.43,17.05-12.67,25.66-18.9-5.07,1.32-10.05,2.89-14.91,4.69-1.52,1.11-3.03,2.22-4.54,3.34-14.76,10.93-29.29,22.25-42.7,34.83-3.31,3.11-6.89,6.2-9.72,9.77-2.37,2.99-3.61,6.79-1.87,10.41,3.53,7.36,14.81,8.43,21.72,10.01,41.27,9.42,83.59,13.03,125.73,15.99,38.95,2.73,78.03,4.9,116.68,10.65-.65-1.79-1.35-3.56-2.06-5.32Z"/><path class="e" d="M1812.05,858.28c-2.93,3.15-5.76,6.42-8.32,9.88-2.63,3.56-4.93,7.86-4.51,12.42,.77,8.36,9.3,11.95,16.34,14.37,.37,.13,.73,.25,1.08,.37,1.06-1.4,2.09-2.82,3.1-4.25-.35-.11-.69-.22-1.04-.33-.17-.06-.34-.1-.5-.16-4.03-1.35-8.6-2.76-11.69-5.83-3.75-3.7-2.22-8.43,.34-12.35,4.59-7.04,10.98-13.21,17.11-18.89,6.4-5.94,13.17-11.45,19.99-16.92,.18-.14,.36-.29,.54-.43,.6-2.53,1.14-5.08,1.61-7.65-.13,.11-.27,.22-.4,.33-5.1,4.09-10.23,8.15-15.24,12.34-6.43,5.38-12.69,10.99-18.41,17.12Z"/><path class="e" d="M1669.19,670.65c-2.37,2.99-3.61,6.79-1.87,10.41,3.53,7.36,14.81,8.43,21.72,10.01,41.27,9.42,83.59,13.03,125.73,15.99,1.64,.12,3.28,.23,4.92,.34-1.26-1.78-2.55-3.54-3.88-5.26-32.27-2.25-64.54-4.85-96.46-10.19-10.62-1.78-21.2-3.86-31.68-6.32-5.24-1.23-21.44-3.76-14.23-12.29,2.96-3.51,6.55-6.61,9.91-9.73,3.44-3.2,6.96-6.32,10.53-9.38,5.29-4.53,10.71-8.91,16.2-13.18-2.34-.31-4.69-.55-7.06-.76-8.28,6.57-16.37,13.38-24.09,20.61-3.31,3.11-6.89,6.2-9.72,9.77Z"/><path class="e" d="M1753.23,894.3c-3.74-3.7-2.22-8.43,.34-12.35,4.59-7.04,10.98-13.21,17.11-18.89,12.53-11.63,26.47-21.61,39.38-32.8,6.46-5.6,12.67-11.51,18.2-18.04,5.47-6.47,10.82-13.64,13.89-21.6,2.98-7.72,2.38-16.1-2.8-22.7-4.41-5.62-11-9.09-17.59-11.52-8.36-3.08-17.27-4.38-26.02-5.81-10.27-1.68-20.58-3.09-30.91-4.3-21.18-2.49-42.44-4.15-63.71-5.65-42.54-2.99-85.25-5.26-127.36-12.32-8.39-1.41-16.75-3.01-25.06-4.83-.82,1.51-1.6,3.04-2.37,4.59,40.36,8.94,81.69,12.47,122.86,15.36,42.44,2.98,85.04,5.27,127.05,12.28,8.37,1.4,16.85,2.7,24.81,5.74,6.42,2.45,13.21,6.3,16.38,12.69,4.17,8.41-.59,17.43-5.21,24.53-4.54,6.97-10.02,13.27-15.94,19.1-12.16,11.99-26.02,22.02-39.09,32.96-6.43,5.38-12.69,10.99-18.41,17.12-2.93,3.15-5.76,6.42-8.32,9.88-2.63,3.56-4.93,7.86-4.51,12.42,.82,8.89,10.41,12.39,17.66,14.81,9.75,3.27,19.88,5.24,30.04,6.7,2.06,.3,4.12,.58,6.19,.85,.54,.07,1.07,.14,1.61,.21,1.48-1.47,2.93-2.96,4.36-4.49-.5-.06-1.01-.12-1.51-.18-13.33-1.6-26.59-3.63-39.35-7.91-4.03-1.35-8.6-2.76-11.69-5.83Z"/><path class="f" d="M272.51,598.46c-12.67,0-22.97,10.11-23.31,22.69,0,.21-.02,.42-.02,.63,0,1.5,.15,2.96,.42,4.38,2.05,10.79,11.52,18.94,22.91,18.94,12.88,0,23.32-10.44,23.32-23.32,0-3.11-.61-6.08-1.72-8.79-.64-1.56-1.44-3.04-2.38-4.42-4.21-6.11-11.24-10.11-19.22-10.11Z"/><path class="f" d="M1166.11,763.58c0,12.88,10.44,23.32,23.32,23.32,4.56,0,8.82-1.32,12.41-3.58,1.47-.93,2.84-2.01,4.06-3.24,4.23-4.22,6.85-10.06,6.85-16.51,0-12.88-10.44-23.32-23.32-23.32-2.7,0-5.29,.46-7.7,1.31-1.65,.58-3.21,1.33-4.66,2.24-6.58,4.12-10.96,11.44-10.96,19.78Z"/><path class="f" d="M1824.93,147.12c11.22,0,20.6-7.88,22.91-18.4,.35-1.6,.54-3.25,.55-4.95,0-.04,0-.08,0-.12,0-12.96-10.51-23.47-23.47-23.47-11.54,0-21.12,8.33-23.09,19.3-.24,1.35-.38,2.75-.38,4.17,0,.27,.01,.54,.02,.8,.42,12.59,10.76,22.67,23.45,22.67Z"/></g></g></svg>