<?xml version="1.0" encoding="UTF-8"?><svg xmlns="http://www.w3.org/2000/svg" width="1080" height="1920" viewBox="0 0 1080 1920"><defs><style>.c{fill:#c7e2d2;}.d{fill:#7ec3a6;}.e{fill:#faf7f0;}.f{fill:#ffa89a;}</style></defs><g id="a"/><g id="b"><g><path class="d" d="M454.08,34.72c14.67,9.45,29.44,21.33,36.67,37.69,6.62,14.99,3.35,30.24-7.31,42.33-10.62,12.04-26.27,20.66-31.92,36.46-5.74,16.06-.44,34.14,9.28,47.5,6.55,9,15.4,15.74,25.19,20.83h306.71c1.98-.42,4.04-.64,6.15-.64s4.16,.22,6.15,.64h275.01v-12.33c-73.04-8.86-146.22-16.61-219.5-23.24-74.52-6.74-149.14-12.32-223.84-16.75-9.34-.55-18.68-1.05-28.01-1.6-6.24-.37-12.54-.95-18.61-2.56-11.43-3.03-21.58-10.73-22.34-23.37-.78-12.9,8.87-24.36,15.5-34.48,8.18-12.47,12.89-25.32,9.16-40.29-7.41-29.74-34.6-48.15-59.28-62.87-1.14-.68-2.28-1.36-3.42-2.04h-152.58c8.83,2.53,17.55,5.45,26.11,8.8,17.76,6.95,34.85,15.59,50.89,25.91Z"/><path class="d" d="M598.72,78.79c-.85,14.07-8.71,25.1-16.23,36.47-6.91,10.45-15.4,25.02-4.52,36.01,9.83,9.92,27.19,9.14,40.01,9.87,18.39,1.04,36.78,2.15,55.17,3.33,74.1,4.77,148.14,10.67,222.06,17.72,61.68,5.88,123.28,12.56,184.79,20.02V0H539.66c6.02,3.61,11.97,7.32,17.65,11.38,21.06,15.06,43.08,39.66,41.41,67.4Z"/><path class="d" d="M476.1,219.52c-11.95-7.82-21.62-18.5-27.21-31.88-5.9-14.12-6.79-30.63,.74-44.34,7.43-13.54,21.35-21.46,31.09-33.04,5.69-6.76,9.25-14.94,8.6-23.91-.69-9.62-5.86-18.44-11.96-25.66-12.21-14.47-29.2-24.53-45.72-33.34-17.63-9.39-36.24-16.88-55.43-22.41-6.56-1.89-13.18-3.52-19.84-4.94H0V219.52H476.1Z"/><path class="d" d="M827.71,241.92c62.29-.02,124.56,3.02,185.6,16.59,22.61,5.03,44.99,11.52,66.68,19.71v-58.7h-275.01c11.28,2.38,20.18,11.18,22.72,22.4Z"/><path class="d" d="M828.41,246.89c.03,.53,.04,1.06,.04,1.6,0,16.35-13.26,29.61-29.61,29.61s-29.61-13.26-29.61-29.61c0-.29,.01-.58,.02-.87-11.74,.23-23.47,.47-35.19,.68-44.74,.8-89.55,1.13-134.22-1.96-21.67-1.5-43.31-3.76-64.75-7.22-18.32-2.95-36.83-7.15-53.23-16.14-1.97-1.08-3.89-2.24-5.75-3.46H0v202.27c.51,.31,1.02,.62,1.53,.93,29.14,17.73,57.78,35.75,84.7,56.77,26.94,21.02,53,43.98,75.64,69.63,20.77,23.54,38.07,50.49,45.45,81.31,6.6,27.54,5.61,56.5-1.14,83.91-6.91,28.07-19.77,54.71-36.99,77.9-9.55,12.86-20.49,24.52-32.46,35.04,3.15,4.7,4.99,10.36,4.99,16.45,0,16.35-13.26,29.61-29.61,29.61-9.88,0-18.62-4.84-24-12.27-27.62,15.13-57.43,25.81-88.12,33.09v304.51c56.17-8.75,112.85-14.23,169.68-16.29,29.14-1.06,58.73-1.15,87.86,1.44,19.88-7.21,40.1-13.48,60.57-18.77,42.95-11.1,87.01-17.94,131.3-20.4,44.29-2.46,88.82-.47,132.71,6.04,35.65,5.29,70.78,14.65,103.95,28.81,32.24,13.77,62.91,32.45,87.71,57.44,25.69,25.89,43.84,58.4,50.7,94.34,8.41,44.1,1.69,89.99-9.43,133-2.95,11.4-6.32,22.69-10.08,33.85,91.61-12.86,183.51-37.61,275.02-55.62V283.46c-31.94-12.13-65.43-20.51-98.94-26.14-50.52-8.49-101.56-10.49-152.65-10.44Z"/><path class="d" d="M99.99,655.64c10.83-22.94,12.23-48.27,4.66-72.42-7.73-24.69-22.86-46.49-39.55-65.96-16.87-19.69-35.97-37.51-56.82-52.93-2.73-2.02-5.5-3.99-8.29-5.91v279.4c18.22-7.48,35.96-16.18,52.12-27.49,20.07-14.03,37.35-32.41,47.87-54.69Z"/><path class="d" d="M792.7,219.52H485.99c7.29,3.79,15.09,6.68,22.87,8.9,20.03,5.72,41.07,8.18,61.72,10.37,22.52,2.39,45.13,3.74,67.76,4.43,43.82,1.34,87.66,.23,131.47-.62,2.33-11.54,11.37-20.65,22.88-23.08Z"/><path class="d" d="M82.51,843.72c0-16.35,13.26-29.61,29.61-29.61,8.47,0,16.11,3.57,21.51,9.27,39.36-34.9,66.92-83.57,72.27-136.3,2.89-28.46-1.11-57.54-13.2-83.58-13.92-29.96-36.47-54.78-60.14-77.39-25.33-24.2-52.59-46.37-81.45-66.22-16.57-11.4-33.98-21.51-51.11-32.04v24.48c12.23,8.34,23.94,17.46,35.02,27.26,19.28,17.05,37.08,36.25,51.73,57.44,14.65,21.18,26.2,45.56,27.7,71.61,1.39,24.28-6.95,47.99-20.77,67.74-14.76,21.08-35.09,37.28-57.43,49.74-11.67,6.51-23.85,12.13-36.26,17.18v145.72c29.77-7.17,58.78-17.61,85.54-32.23-1.94-3.94-3.03-8.37-3.03-13.06Z"/><path class="d" d="M811.2,1302.7c-12.21-31.87-34.25-58.91-60.83-79.99-27.65-21.93-59.98-37.7-93.29-48.99-35.84-12.15-73.13-18.89-110.75-22.36-43.19-3.98-86.77-3.62-129.91,.92-43.48,4.58-86.52,13.49-128.27,26.47-6.36,1.98-12.68,4.06-18.97,6.23,33.05,3.79,65.34,11.34,95.52,25.19,.84,.38,1.67,.78,2.51,1.17,56.18-10.05,115.39-12.21,171.06,1.51,27.28,6.73,53.82,17.51,77.18,33.25,14.82,9.99,28.39,21.85,40.15,35.31,3.25-1.23,6.77-1.9,10.45-1.9,16.35,0,29.61,13.26,29.61,29.61,0,8.45-3.54,16.06-9.21,21.45,4.95,11.97,8.47,24.52,10.25,37.38,4.05,29.33-.8,59.2-10.88,86.86-6.57,18.02-15.2,34.89-25.12,50.98,46.12,2.45,92.4-.67,138.77-6.93,6.97-20.35,12.6-41.16,16.8-62.25,8.79-44.13,11.32-91.17-5.06-133.91Z"/><path class="d" d="M688.02,1350.49c-1.55-5.67-3.45-11.23-5.64-16.68-4.68,3.1-10.3,4.92-16.34,4.92-16.35,0-29.61-13.26-29.61-29.61,0-10.83,5.82-20.3,14.5-25.46-15.76-17.75-34.71-32.61-55.6-43.87-25.32-13.65-53.19-22.17-81.51-26.84-28.9-4.77-58.41-5.5-87.6-3.69-17.25,1.07-34.43,3.04-51.48,5.85,55.63,29.21,100.36,84.28,100.72,146.45,.11,19.19-3.87,38.67,.28,57.41,9.74,43.93,58.74,66.54,102.99,76.09,25.35,5.47,50.77,8.8,76.24,10.41,14.03-22.36,25.54-46.11,32.28-72.07,7.04-27.13,8.19-55.74,.76-82.91Z"/><path class="c" d="M431.64,27.34c16.52,8.81,33.51,18.86,45.72,33.34,6.1,7.23,11.26,16.04,11.96,25.66,.65,8.97-2.91,17.15-8.6,23.91-9.75,11.58-23.66,19.5-31.09,33.04-7.52,13.71-6.64,30.22-.74,44.34,5.6,13.38,15.26,24.06,27.21,31.88,1.87,1.22,3.78,2.38,5.75,3.46,16.4,8.99,34.91,13.19,53.23,16.14,21.45,3.45,43.09,5.72,64.75,7.22,44.67,3.09,89.48,2.76,134.22,1.96,11.72-.21,23.45-.46,35.19-.68,.05-1.71,.24-3.38,.56-5.01-43.82,.84-87.66,1.96-131.47,.62-22.63-.69-45.25-2.04-67.76-4.43-20.66-2.19-41.69-4.65-61.72-10.37-7.78-2.22-15.59-5.11-22.87-8.9-9.79-5.09-18.64-11.83-25.19-20.83-9.71-13.35-15.02-31.44-9.28-47.5,5.65-15.8,21.3-24.42,31.92-36.46,10.66-12.09,13.93-27.34,7.31-42.33-7.22-16.36-21.99-28.24-36.67-37.69-16.04-10.33-33.13-18.96-50.89-25.91-8.55-3.35-17.27-6.27-26.11-8.8h-20.71c6.66,1.41,13.28,3.05,19.84,4.94,19.19,5.52,37.8,13.01,55.43,22.41Z"/><path class="c" d="M827.71,241.92c.36,1.61,.6,3.27,.69,4.96,51.1-.05,102.13,1.95,152.65,10.44,33.51,5.63,67,14.01,98.94,26.14v-5.24c-21.69-8.19-44.08-14.68-66.68-19.71-61.05-13.57-123.31-16.61-185.6-16.59Z"/><path class="c" d="M592.36,64.91c3.73,14.97-.98,27.82-9.16,40.29-6.64,10.12-16.28,21.58-15.5,34.48,.76,12.64,10.91,20.34,22.34,23.37,6.06,1.61,12.36,2.19,18.61,2.56,9.34,.55,18.68,1.05,28.01,1.6,74.69,4.42,149.32,10.01,223.84,16.75,73.28,6.63,146.46,14.38,219.5,23.24v-4.99c-61.51-7.46-123.11-14.14-184.79-20.02-73.92-7.05-147.95-12.95-222.06-17.72-18.38-1.18-36.77-2.29-55.17-3.33-12.82-.73-30.18,.06-40.01-9.87-10.88-10.99-2.39-25.55,4.52-36.01,7.51-11.37,15.38-22.39,16.23-36.47,1.67-27.74-20.35-52.34-41.41-67.4-5.68-4.06-11.63-7.77-17.65-11.38h-10c1.14,.68,2.28,1.36,3.42,2.04,24.69,14.72,51.87,33.13,59.28,62.87Z"/><path class="c" d="M513.83,1212.94c28.32,4.67,56.18,13.2,81.51,26.84,20.89,11.26,39.84,26.12,55.6,43.87,1.48-.88,3.04-1.63,4.66-2.24-11.75-13.46-25.33-25.32-40.15-35.31-23.35-15.75-49.89-26.53-77.18-33.25-55.67-13.72-114.88-11.57-171.06-1.51,2.53,1.2,5.05,2.46,7.54,3.77,17.05-2.81,34.23-4.78,51.48-5.85,29.2-1.82,58.7-1.08,87.6,3.69Z"/><path class="c" d="M696.69,1367.96c-1.78-12.86-5.3-25.41-10.25-37.38-1.25,1.19-2.61,2.28-4.06,3.24,2.19,5.44,4.09,11.01,5.64,16.68,7.43,27.17,6.28,55.78-.76,82.91-6.74,25.97-18.25,49.71-32.28,72.07,1.9,.12,3.8,.23,5.7,.33,9.92-16.1,18.55-32.96,25.12-50.98,10.08-27.66,14.93-57.53,10.88-86.86Z"/><path class="c" d="M288.15,1178.75c41.75-12.99,84.79-21.89,128.27-26.47,43.13-4.54,86.71-4.9,129.91-.92,37.63,3.47,74.91,10.21,110.75,22.36,33.31,11.29,65.64,27.06,93.29,48.99,26.58,21.08,48.62,48.12,60.83,79.99,16.38,42.74,13.84,89.78,5.06,133.91-4.2,21.09-9.83,41.9-16.8,62.25,1.84-.25,3.68-.5,5.52-.76,3.76-11.16,7.13-22.45,10.08-33.85,11.11-43.01,17.84-88.91,9.43-133-6.86-35.94-25.01-68.45-50.7-94.34-24.8-24.99-55.47-43.67-87.71-57.44-33.17-14.17-68.3-23.53-103.95-28.81-43.89-6.51-88.41-8.5-132.71-6.04-44.29,2.46-88.36,9.3-131.3,20.4-20.47,5.29-40.69,11.56-60.57,18.77,3.89,.34,7.77,.74,11.64,1.18,6.29-2.17,12.61-4.25,18.97-6.23Z"/><path class="c" d="M93.68,676.38c13.83-19.75,22.16-43.46,20.77-67.74-1.49-26.06-13.04-50.44-27.7-71.61-14.66-21.19-32.46-40.39-51.73-57.44-11.09-9.81-22.79-18.92-35.02-27.26v6.09c2.79,1.92,5.55,3.88,8.29,5.91,20.85,15.42,39.94,33.24,56.82,52.93,16.69,19.47,31.82,41.28,39.55,65.96,7.57,24.16,6.16,49.48-4.66,72.42-10.52,22.28-27.8,40.67-47.87,54.69-16.17,11.3-33.9,20.01-52.12,27.49v5.47c12.41-5.06,24.58-10.67,36.26-17.18,22.34-12.46,42.67-28.66,57.43-49.74Z"/><path class="c" d="M85.54,856.78c-26.76,14.62-55.77,25.06-85.54,32.23v5.13c30.69-7.28,60.5-17.96,88.12-33.09-.97-1.35-1.84-2.78-2.58-4.28Z"/><path class="c" d="M132.56,526.11c23.66,22.61,46.22,47.43,60.14,77.39,12.09,26.04,16.09,55.12,13.2,83.58-5.35,52.74-32.92,101.4-72.27,136.3,1.14,1.21,2.19,2.5,3.11,3.89,11.97-10.52,22.91-22.19,32.46-35.04,17.22-23.18,30.08-49.83,36.99-77.9,6.75-27.41,7.73-56.37,1.14-83.91-7.38-30.82-24.68-57.77-45.45-81.31-22.64-25.65-48.7-48.61-75.64-69.63-26.93-21.02-55.57-39.04-84.7-56.77-.51-.31-1.02-.62-1.53-.93v6.06c17.13,10.53,34.54,20.64,51.11,32.04,28.86,19.85,56.12,42.02,81.45,66.22Z"/><path class="f" d="M112.12,814.11c-16.35,0-29.61,13.26-29.61,29.61,0,4.69,1.09,9.12,3.03,13.06,.74,1.5,1.61,2.93,2.58,4.28,5.38,7.43,14.12,12.27,24,12.27,16.35,0,29.61-13.26,29.61-29.61,0-6.09-1.84-11.74-4.99-16.45-.93-1.38-1.97-2.68-3.11-3.89-5.4-5.71-13.03-9.27-21.51-9.27Z"/><path class="f" d="M636.43,1309.12c0,16.35,13.26,29.61,29.61,29.61,6.04,0,11.65-1.81,16.34-4.92,1.45-.96,2.8-2.05,4.06-3.24,5.67-5.39,9.21-13.01,9.21-21.45,0-16.35-13.26-29.61-29.61-29.61-3.68,0-7.2,.68-10.45,1.9-1.63,.61-3.19,1.37-4.66,2.24-8.68,5.16-14.5,14.63-14.5,25.46Z"/><path class="f" d="M798.84,278.1c16.35,0,29.61-13.26,29.61-29.61,0-.54-.02-1.07-.04-1.6-.09-1.7-.33-3.35-.69-4.96-2.54-11.22-11.45-20.02-22.72-22.4-1.98-.42-4.04-.64-6.15-.64s-4.16,.22-6.15,.64c-11.51,2.43-20.55,11.54-22.88,23.08-.33,1.63-.51,3.3-.56,5.01,0,.29-.02,.58-.02,.87,0,16.35,13.26,29.61,29.61,29.61Z"/><path class="e" d="M799.46,1498.87c-46.37,6.26-92.65,9.38-138.77,6.93-1.9-.1-3.8-.21-5.7-.33-25.47-1.61-50.89-4.94-76.24-10.41-44.25-9.55-93.25-32.16-102.99-76.09-4.15-18.75-.17-38.22-.28-57.41-.36-62.17-45.09-117.24-100.72-146.45-2.49-1.31-5.01-2.57-7.54-3.77-.83-.4-1.67-.79-2.51-1.17-30.18-13.84-62.47-21.4-95.52-25.19-3.87-.44-7.75-.84-11.64-1.18-29.13-2.58-58.72-2.49-87.86-1.44-56.83,2.06-113.51,7.54-169.68,16.29v721.34H1080v-477.51c-91.51,18.02-183.42,42.77-275.02,55.62-1.84,.26-3.68,.51-5.52,.76Z"/></g></g></svg>