<?xml version="1.0" encoding="UTF-8"?><svg id="a" xmlns="http://www.w3.org/2000/svg" width="35.81cm" height="8.22cm" viewBox="0 0 1015.22 233.12"><defs><style>.b{letter-spacing:-.02em;}.c{letter-spacing:-.02em;}.d{fill:#ec837e;}.e,.f{fill:#faf7f0;}.g{letter-spacing:0em;}.f{font-family:Broadacre-Regular0, Broadacre;font-size:181.65px;}</style></defs><path class="d" d="M141,.99l94.65,43.93c2.61,1.21,4.28,3.87,4.28,6.81V180.24c0,5.43-5.47,9.05-10.3,6.81l-94.65-43.93c-2.61-1.21-4.28-3.87-4.28-6.81V7.8c0-5.43,5.47-9.05,10.3-6.81Z"/><path class="e" d="M102.31,.62L5.01,45.08c-2.44,1.12-4.01,3.57-4.01,6.28V181.14c0,5.01,5.13,8.35,9.65,6.28l97.29-44.45c2.44-1.12,4.01-3.57,4.01-6.28V6.9c0-5.01-5.13-8.35-9.65-6.28Z"/><path class="d" d="M101.41,232.13L4.39,188.2c-2.67-1.21-4.39-3.87-4.39-6.81V52.89c0-5.43,5.61-9.05,10.56-6.81l97.02,43.93c2.67,1.21,4.39,3.87,4.39,6.81V225.33c0,5.43-5.61,9.05-10.56,6.81Z"/><path class="e" d="M139.45,232.5l98.17-44.45c2.47-1.12,4.05-3.57,4.05-6.28V51.99c0-5.01-5.17-8.35-9.74-6.28l-98.17,44.45c-2.47,1.12-4.05,3.57-4.05,6.28V226.22c0,5.01,5.17,8.35,9.74,6.28Z"/><text class="f" transform="translate(277 183.62)"><tspan class="g" x="0" y="0">L</tspan><tspan class="c" x="108.81" y="0">E</tspan><tspan class="b" x="223.97" y="0">A</tspan><tspan x="361.48" y="0">SER</tspan></text></svg>