<?xml version="1.0" encoding="UTF-8"?><svg id="a" xmlns="http://www.w3.org/2000/svg" width="35.41cm" height="8.22cm" viewBox="0 0 1003.71 233.12"><defs><style>.b{fill:#ec837e;}.c{fill:#faf7f0;}</style></defs><path class="b" d="M141,.99l94.65,43.93c2.61,1.21,4.28,3.87,4.28,6.81V180.24c0,5.43-5.47,9.05-10.3,6.81l-94.65-43.93c-2.61-1.21-4.28-3.87-4.28-6.81V7.8c0-5.43,5.47-9.05,10.3-6.81Z"/><path class="c" d="M102.31,.62L5.01,45.08c-2.44,1.12-4.01,3.57-4.01,6.28V181.14c0,5.01,5.13,8.35,9.65,6.28l97.29-44.45c2.44-1.12,4.01-3.57,4.01-6.28V6.9c0-5.01-5.13-8.35-9.65-6.28Z"/><path class="b" d="M101.41,232.13L4.39,188.2c-2.67-1.21-4.39-3.87-4.39-6.81V52.89c0-5.43,5.61-9.05,10.56-6.81l97.02,43.93c2.67,1.21,4.39,3.87,4.39,6.81V225.33c0,5.43-5.61,9.05-10.56,6.81Z"/><path class="c" d="M139.45,232.5l98.17-44.45c2.47-1.12,4.05-3.57,4.05-6.28V51.99c0-5.01-5.17-8.35-9.74-6.28l-98.17,44.45c-2.47,1.12-4.05,3.57-4.05,6.28V226.22c0,5.01,5.17,8.35,9.74,6.28Z"/><g><path class="c" d="M295.89,181.81V73.72c0-10.72-.18-17.8-.18-24.52,0-1.09,.91-1.82,1.82-1.82h15.44c1.09,0,2,.73,2,1.82,0,6.72-.18,13.62-.18,24.34v91.55c0,.73,.36,.91,.91,.91h43.42c13.44,0,19.62-.18,23.43-.18,1.27,0,2,.91,2,2v14.17c0,.91-.73,1.82-2,1.82-3.63,0-9.99-.18-23.25-.18h-61.58c-1.09,0-1.82-.73-1.82-1.82Z"/><path class="c" d="M404.52,181.44V49.2c0-1.09,.73-1.82,1.82-1.82h52.68c12.72,0,19.62-.18,23.8-.18,1.09,0,1.82,.91,1.82,1.82v14.17c0,1.09-.73,2-1.82,2-4.18,0-11.08-.18-23.8-.18h-34.51c-.73,0-1.09,.18-1.09,.91v25.61h35.6c12.72,0,19.8-.18,23.8-.18,1.09,0,1.82,.91,1.82,1.82v14.17c0,1.09-.73,2-1.82,2-4.18,0-11.08-.18-23.8-.18h-35.6v55.59c0,.73,.36,1.27,1.09,1.27h46.14c12.9,0,19.98-.18,23.98-.18,1.27,0,2,.91,2,2v14.17c0,.91-.73,1.82-2,1.82-4.18,0-11.08-.18-24.16-.18h-63.94c-1.27,0-2-.91-2-2.18Z"/><path class="c" d="M576.36,49.74l55.95,114.99c4,8.54,6.36,12.9,7.99,16.35,.55,1.09,.18,2.54-1.63,2.54h-17.26c-1.45,0-2.36-1.09-2.91-2-1.82-4-4.18-8.9-8.36-17.8l-2.36-4.9h-73.57l-2.18,4.72c-3.63,7.99-6.36,13.99-8.36,17.98-.36,.91-1.45,2-2.91,2h-15.62c-1.63,0-2.18-1.45-1.63-2.54,2-3.63,4.72-9.08,8.36-16.71l55.59-114.62c1.27-2.73,2.72-3.45,4.36-3.45s3.09,.91,4.54,3.45Zm23.43,92.28l-28.7-60.67-28.7,60.67h57.4Z"/><path class="c" d="M649.2,164c-.54-.54-.73-1.63,0-2.72l9.45-9.99c.91-1.09,2-.91,2.91-.18,10.9,10.9,24.16,17.98,41.6,17.98,16.35,0,29.43-7.81,29.43-20.53,0-29.06-80.66-24.52-80.66-67.58,0-23.43,21.62-36.51,48.14-36.51,20.16,0,35.79,8.17,47.41,17.8,1.09,.91,1.09,2.18,.54,2.73l-9.26,10.72c-.73,.73-1.82,.91-2.91,0-8.9-7.81-21.43-13.99-35.97-13.99-16.17,0-28.7,7.27-28.7,17.98,0,28.16,80.84,24.16,80.84,67.21,0,25.61-22.16,39.6-49.23,39.6-22.34,0-40.51-9.26-53.59-22.53Z"/><path class="c" d="M780.16,181.44V49.2c0-1.09,.73-1.82,1.82-1.82h52.68c12.72,0,19.62-.18,23.8-.18,1.09,0,1.82,.91,1.82,1.82v14.17c0,1.09-.73,2-1.82,2-4.18,0-11.08-.18-23.8-.18h-34.51c-.73,0-1.09,.18-1.09,.91v25.61h35.6c12.72,0,19.8-.18,23.8-.18,1.09,0,1.82,.91,1.82,1.82v14.17c0,1.09-.73,2-1.82,2-4.18,0-11.08-.18-23.8-.18h-35.6v55.59c0,.73,.36,1.27,1.09,1.27h46.14c12.9,0,19.98-.18,23.98-.18,1.27,0,2,.91,2,2v14.17c0,.91-.73,1.82-2,1.82-4.18,0-11.08-.18-24.16-.18h-63.94c-1.27,0-2-.91-2-2.18Z"/><path class="c" d="M898.24,181.81c0-4.18,.18-10.17,.18-20.35V49.2c0-1.09,.73-1.82,1.82-1.82h44.14c33.42,0,58.67,22.34,58.67,54.5,0,26.34-15.08,45.23-38.15,52.14,7.27,6.54,11.81,14.35,24.34,14.35,2.73,0,5.27-.36,8.72-1.82,1.27-.36,2.18,0,2.54,1.27l3.09,12.35c.36,1.45-.18,2.36-1.27,2.72-5.63,2.36-9.81,2.91-13.99,2.91-29.06,0-32.15-26.52-55.95-26.52h-15.08v3.81c0,9.45,.18,14.53,.18,18.71,0,.91-.91,1.82-1.82,1.82h-15.62c-1.09,0-1.82-.73-1.82-1.82Zm43.96-40.15c23.98,0,42.14-15.99,42.14-39.78s-17.98-36.88-40.33-36.88h-25.8c-.73,0-.91,.54-.91,1.09v75.57h24.89Z"/></g></svg>